<svg width="92" height="53" viewBox="0 0 92 53" fill="none" xmlns="http://www.w3.org/2000/svg">
<circle cx="23.5" cy="25.5" r="23.5" fill="#595959"/>
<path d="M29.875 37H27.1328L26.5703 34.2402C26.2188 35.4473 25.5801 36.2559 24.6543 36.666C23.7402 37.0645 22.3984 37.2637 20.6289 37.2637C19.457 37.2637 18.4961 37.1523 17.7461 36.9297C16.9961 36.6953 16.3984 36.3086 15.9531 35.7695C15.5078 35.2305 15.1973 34.5742 15.0215 33.8008C14.8574 33.0156 14.7754 32.0078 14.7754 30.7773C14.7754 30.2266 14.8691 29.7344 15.0566 29.3008C15.2559 28.8672 15.5195 28.498 15.8477 28.1934C16.1875 27.8887 16.6328 27.625 17.1836 27.4023C17.7461 27.1797 18.3262 27.0039 18.9238 26.875C19.5215 26.7461 20.2422 26.6465 21.0859 26.5762C21.9414 26.4941 22.7734 26.4414 23.582 26.418C24.3906 26.3945 25.334 26.3828 26.4121 26.3828V21.1621C26.4121 20.5645 26.1309 20.1543 25.5684 19.9316C25.0059 19.6973 24.0039 19.5801 22.5625 19.5801C21.5547 19.5801 20.7988 19.6035 20.2949 19.6504C19.791 19.6973 19.4043 19.8379 19.1348 20.0723C18.877 20.2949 18.7246 20.5176 18.6777 20.7402C18.6426 20.9629 18.6191 21.3789 18.6074 21.9883C18.5957 22.2109 18.5898 22.3867 18.5898 22.5156L15.9004 22.4102C15.877 22.2227 15.8652 21.9473 15.8652 21.584C15.8652 20.7988 15.9766 20.1367 16.1992 19.5977C16.4336 19.0469 16.7324 18.6191 17.0957 18.3145C17.459 17.998 17.957 17.752 18.5898 17.5762C19.2227 17.4004 19.8496 17.2891 20.4707 17.2422C21.0918 17.1953 21.8652 17.1719 22.791 17.1719C24.1973 17.1719 25.3398 17.2832 26.2188 17.5059C27.0977 17.7168 27.8184 18.1035 28.3809 18.666C28.9434 19.2285 29.3301 19.9492 29.541 20.8281C29.7637 21.6953 29.875 22.832 29.875 24.2383V37ZM26.4121 31.4805V28.4746C24.1035 28.4746 22.3281 28.5625 21.0859 28.7383C19.8438 28.9141 19.0117 29.1602 18.5898 29.4766C18.1797 29.7812 17.9746 30.2148 17.9746 30.7773C17.9746 30.8008 17.9746 30.8359 17.9746 30.8828C17.9746 32.6641 18.1211 33.7715 18.4141 34.2051C18.707 34.6387 19.6035 34.8555 21.1035 34.8555C22.3809 34.8555 23.418 34.7031 24.2148 34.3984C25.0117 34.0938 25.5625 33.707 25.8672 33.2383C26.1836 32.7578 26.3652 32.1719 26.4121 31.4805Z" fill="#ededed"/>
<path d="M63.377 34.8867L51.1426 27.2754V24.375L63.377 16.4824V20.6309L54.2539 25.6758L63.377 30.8789V34.8867ZM75.5762 12.3516L69.1426 39.457H65.9961L72.4473 12.3516H75.5762ZM90.834 27.2754L78.5645 34.8867V30.8965L87.7051 25.6934L78.5645 20.6309V16.4824L90.834 24.375V27.2754Z" fill="#595959"/>
</svg>
